{"title":"The Flash 2014 S03E01 Flashpoint 1080p WEB-DL HEVC DD5.1 x265","uid":15961490,"size":734128665,"categoryP":"video","categoryS":"hd___tv_shows","magnet":"?xt=urn:btih:a9db50ea2a9476b60c227d49f31072c6626cd73c&amp;dn=The+Flash+2014+S03E01+Flashpoint+1080p+WEB-DL+HEVC+DD5.1+x265&amp;tr=udp%3A%2F%2Ftracker.leechers-paradise.org%3A6969&amp;tr=udp%3A%2F%2Fzer0day.ch%3A1337&amp;tr=udp%3A%2F%2Fopen.demonii.com%3A1337&amp;tr=udp%3A%2F%2Ftracker.coppersurfer.tk%3A6969&amp;tr=udp%3A%2F%2Fexodus.desync.com%3A6969","seeders":31,"leechers":26,"uploader":"nayhtut","files":1,"time":1475667545,"description":"Source:The Flash 2014 S03E01 Flashpoint 1080p WEB.DL DD5.1 H.264-Viet(1.64 GB)\r\n\r\n \r\nComplete name: The.Flash.2014.S03E01.Flashpoint.1080p.WEB.DL.HEVC.DD5.1.x265.mkv\r\nFormat                                   : Matroska\r\nFormat version                           : Version 4 / Version 2\r\nFile size                                : 700 MiB\r\nDuration                                 : 42mn 23s\r\nOverall bit rate                         : 2 309 Kbps\r\nWriting application                      : Lavf57.25.100\r\nWriting library                          : Lavf57.25.100\r\n\r\nVideo\r\n\r\nID                                       : 1\r\nFormat                                   : V_MPEGH/ISO/HEVC\r\nCodec ID                                 : V_MPEGH/ISO/HEVC\r\nDuration                                 : 42mn 23s\r\nBit rate                                 : 1 879 Kbps\r\nWidth                                    : 1 916 pixels\r\nHeight                                   : 1 074 pixels\r\nDisplay aspect ratio                     : 16:9\r\nFrame rate                               : 25.000 fps\r\nBits/(Pixel*Frame)                       : 0.037\r\nStream size                              : 570 MiB (81%)\r\nWriting library                          : Lavc57.48.101 libx265\r\nLanguage                                 : English\r\nDefault                                  : Yes\r\nForced                                   : No\r\nDURATION                                 : 00:42:23.571000000\r\n\r\nAudio\r\n\r\nID                                       : 2\r\nFormat                                   : AC-3\r\nFormat/Info                              : Audio Coding 3\r\nMode extension                           : CM (complete main)\r\nFormat settings, Endianness              : Big\r\nCodec ID                                 : A_AC3\r\nDuration                                 : 42mn 23s\r\nBit rate mode                            : Constant\r\nBit rate                                 : 384 Kbps\r\nChannel(s)                               : 6 channels\r\nChannel positions                        : Front: L C R, Side: L R, LFE\r\nSampling rate                            : 48.0 KHz\r\nBit depth                                : 16 bits\r\nCompression mode                         : Lossy\r\nStream size                              : 116 MiB (17%)\r\nWriting library                          : Lavc57.24.102 ac3\r\nLanguage                                 : English\r\nDefault                                  : Yes\r\nForced                                   : No\r\nDURATION                                 : 00:42:23.583000000\r\n\r\nText\r\n\r\nID                                       : 3\r\nFormat                                   : ASS\r\nCodec ID                                 : S_TEXT/ASS\r\nLanguage                                 : English\r\nDefault                                  : No","torrent":{"xt":"urn:btih:a9db50ea2a9476b60c227d49f31072c6626cd73c","amp;dn":"The+Flash+2014+S03E01+Flashpoint+1080p+WEB-DL+HEVC+DD5.1+x265","amp;tr":["udp%3A%2F%2Ftracker.leechers-paradise.org%3A6969","udp%3A%2F%2Fzer0day.ch%3A1337","udp%3A%2F%2Fopen.demonii.com%3A1337","udp%3A%2F%2Ftracker.coppersurfer.tk%3A6969","udp%3A%2F%2Fexodus.desync.com%3A6969"],"infoHash":"a9db50ea2a9476b60c227d49f31072c6626cd73c","infoHashBuffer":{"type":"Buffer","data":[169,219,80,234,42,148,118,182,12,34,125,73,243,16,114,198,98,108,215,60]},"announce":[],"urlList":[]}}